STARTFONT 2.1
COMMENT Recovered from 14fr3.kst (MIT CADR PDP-10 interchange font source (KST))
FONT MIT-CADR-14FR3
SIZE 14 72 72
FONTBOUNDINGBOX 10 14 0 -3
STARTPROPERTIES 2
FONT_ASCENT 11
FONT_DESCENT 3
ENDPROPERTIES
CHARS 127
STARTCHAR C0000
ENCODING -1 0
SWIDTH 714 0
DWIDTH 10 0
BBX 7 14 0 -3
BITMAP
FE
FE
FE
FE
FE
FE
FE
FE
FE
FE
FE
FE
FE
FE
ENDCHAR
STARTCHAR C0001
ENCODING -1 1
SWIDTH 786 0
DWIDTH 11 0
BBX 7 14 1 -3
BITMAP
10
10
10
10
10
10
96
D4
5C
78
30
00
00
00
ENDCHAR
STARTCHAR C0002
ENCODING -1 2
SWIDTH 714 0
DWIDTH 10 0
BBX 8 14 0 -3
BITMAP
00
00
00
01
72
8E
84
84
84
8E
73
00
00
00
ENDCHAR
STARTCHAR C0003
ENCODING -1 3
SWIDTH 714 0
DWIDTH 10 0
BBX 8 14 0 -3
BITMAP
0C
3E
72
62
44
CC
C6
C3
C3
E3
FC
80
80
80
ENDCHAR
STARTCHAR C0004
ENCODING -1 4
SWIDTH 714 0
DWIDTH 10 0
BBX 8 14 0 -3
BITMAP
00
00
00
00
18
3C
64
46
42
83
81
00
00
00
ENDCHAR
STARTCHAR C0005
ENCODING -1 5
SWIDTH 714 0
DWIDTH 10 0
BBX 8 14 0 -3
BITMAP
00
00
00
00
00
FF
FF
03
03
00
00
00
00
00
ENDCHAR
STARTCHAR C0006
ENCODING -1 6
SWIDTH 857 0
DWIDTH 12 0
BBX 5 14 2 -3
BITMAP
00
00
00
00
78
C0
F0
F0
80
70
38
00
00
00
ENDCHAR
STARTCHAR C0007
ENCODING -1 7
SWIDTH 714 0
DWIDTH 10 0
BBX 8 14 0 -3
BITMAP
00
00
00
00
FF
B4
24
64
64
44
46
00
00
00
ENDCHAR
STARTCHAR C0008
ENCODING -1 8
SWIDTH 714 0
DWIDTH 10 0
BBX 8 14 0 -3
BITMAP
00
E0
B0
10
08
08
1C
3C
64
C6
83
00
00
00
ENDCHAR
STARTCHAR C0009
ENCODING -1 9
SWIDTH 714 0
DWIDTH 10 0
BBX 7 14 0 -3
BITMAP
00
00
82
C6
6C
38
38
38
68
68
38
10
00
00
ENDCHAR
STARTCHAR C000A
ENCODING -1 10
SWIDTH 786 0
DWIDTH 11 0
BBX 7 14 0 -3
BITMAP
00
38
7E
C6
60
38
7C
86
86
E4
7C
00
00
00
ENDCHAR
STARTCHAR C000B
ENCODING -1 11
SWIDTH 786 0
DWIDTH 11 0
BBX 7 14 1 -3
BITMAP
30
78
5C
D4
96
10
10
10
10
10
10
00
00
00
ENDCHAR
STARTCHAR C000C
ENCODING -1 12
SWIDTH 714 0
DWIDTH 10 0
BBX 8 14 0 -3
BITMAP
00
18
18
18
FF
18
18
18
00
FF
FF
00
00
00
ENDCHAR
STARTCHAR C000D
ENCODING -1 13
SWIDTH 714 0
DWIDTH 10 0
BBX 8 14 0 -3
BITMAP
00
00
00
3C
5A
9B
FF
9B
9A
7C
18
00
00
00
ENDCHAR
STARTCHAR C000E
ENCODING -1 14
SWIDTH 714 0
DWIDTH 10 0
BBX 8 14 0 -3
BITMAP
00
00
00
00
00
66
9B
9B
9B
66
00
00
00
00
ENDCHAR
STARTCHAR C000F
ENCODING -1 15
SWIDTH 786 0
DWIDTH 11 0
BBX 7 14 1 -3
BITMAP
38
24
06
06
06
7E
86
86
86
8C
78
00
00
00
ENDCHAR
STARTCHAR C0010
ENCODING -1 16
SWIDTH 714 0
DWIDTH 10 0
BBX 8 14 0 -3
BITMAP
00
00
00
00
3F
60
80
80
80
60
3F
00
00
00
ENDCHAR
STARTCHAR C0011
ENCODING -1 17
SWIDTH 714 0
DWIDTH 10 0
BBX 8 14 0 -3
BITMAP
00
00
00
00
FC
06
03
03
03
06
FC
00
00
00
ENDCHAR
STARTCHAR C0012
ENCODING -1 18
SWIDTH 786 0
DWIDTH 11 0
BBX 6 14 1 -3
BITMAP
00
30
78
CC
84
84
84
84
84
84
84
00
00
00
ENDCHAR
STARTCHAR C0013
ENCODING -1 19
SWIDTH 786 0
DWIDTH 11 0
BBX 6 14 1 -3
BITMAP
00
84
84
84
84
84
84
84
84
CC
78
00
00
00
ENDCHAR
STARTCHAR C0014
ENCODING -1 20
SWIDTH 714 0
DWIDTH 10 0
BBX 8 14 0 -3
BITMAP
83
C2
C2
46
7C
64
3C
3C
18
18
18
00
00
00
ENDCHAR
STARTCHAR C0015
ENCODING -1 21
SWIDTH 714 0
DWIDTH 10 0
BBX 8 14 0 -3
BITMAP
FF
02
02
02
02
1E
02
02
02
02
FF
00
00
00
ENDCHAR
STARTCHAR C0016
ENCODING -1 22
SWIDTH 714 0
DWIDTH 10 0
BBX 8 14 0 -3
BITMAP
00
00
00
00
3C
66
BB
9B
BB
66
3C
00
00
00
ENDCHAR
STARTCHAR C0017
ENCODING -1 23
SWIDTH 714 0
DWIDTH 10 0
BBX 8 14 0 -3
BITMAP
00
00
00
00
20
64
FF
FF
42
24
00
00
00
00
ENDCHAR
STARTCHAR C0018
ENCODING -1 24
SWIDTH 714 0
DWIDTH 10 0
BBX 8 14 0 -3
BITMAP
00
00
00
00
20
60
FF
FF
40
20
00
00
00
00
ENDCHAR
STARTCHAR C0019
ENCODING -1 25
SWIDTH 714 0
DWIDTH 10 0
BBX 8 14 0 -3
BITMAP
00
00
00
00
00
04
FF
FF
02
04
00
00
00
00
ENDCHAR
STARTCHAR C001A
ENCODING -1 26
SWIDTH 786 0
DWIDTH 11 0
BBX 7 14 1 -3
BITMAP
00
00
00
00
04
FC
FC
10
FE
40
80
00
00
00
ENDCHAR
STARTCHAR C001B
ENCODING -1 27
SWIDTH 714 0
DWIDTH 10 0
BBX 7 14 0 -3
BITMAP
00
10
18
38
6C
C6
64
7C
38
10
00
00
00
00
ENDCHAR
STARTCHAR C001C
ENCODING -1 28
SWIDTH 786 0
DWIDTH 11 0
BBX 7 14 1 -3
BITMAP
00
00
06
0C
70
C0
70
1C
06
00
FE
00
00
00
ENDCHAR
STARTCHAR C001D
ENCODING -1 29
SWIDTH 786 0
DWIDTH 11 0
BBX 7 14 1 -3
BITMAP
00
00
80
E0
38
0E
38
70
C0
00
FE
00
00
00
ENDCHAR
STARTCHAR C001E
ENCODING -1 30
SWIDTH 786 0
DWIDTH 11 0
BBX 7 14 1 -3
BITMAP
00
00
00
00
FC
FC
FC
FE
00
FE
00
00
00
00
ENDCHAR
STARTCHAR C001F
ENCODING -1 31
SWIDTH 714 0
DWIDTH 10 0
BBX 8 14 0 -3
BITMAP
00
00
00
00
81
83
42
46
64
3C
18
00
00
00
ENDCHAR
STARTCHAR C0020
ENCODING -1 32
SWIDTH 1143 0
DWIDTH 16 0
BBX 1 14 0 -3
BITMAP
00
00
00
00
00
00
00
00
00
00
00
00
00
00
ENDCHAR
STARTCHAR C0021
ENCODING -1 33
SWIDTH 1071 0
DWIDTH 15 0
BBX 2 14 6 -3
BITMAP
80
C0
C0
C0
C0
C0
C0
C0
00
80
C0
00
00
00
ENDCHAR
STARTCHAR C0022
ENCODING -1 34
SWIDTH 857 0
DWIDTH 12 0
BBX 4 14 4 -3
BITMAP
90
D0
D0
D0
D0
90
00
00
00
00
00
00
00
00
ENDCHAR
STARTCHAR C0023
ENCODING -1 35
SWIDTH 714 0
DWIDTH 10 0
BBX 8 14 1 -3
BITMAP
0A
1E
1E
14
FF
3C
FE
68
68
58
D0
00
00
00
ENDCHAR
STARTCHAR C0024
ENCODING -1 36
SWIDTH 714 0
DWIDTH 10 0
BBX 8 14 1 -3
BITMAP
38
7E
DE
DE
78
3C
9F
9B
DB
FF
BC
18
00
00
ENDCHAR
STARTCHAR C0025
ENCODING -1 37
SWIDTH 714 0
DWIDTH 10 0
BBX 8 14 1 -3
BITMAP
02
E6
B6
BC
EC
18
18
36
3F
6F
67
C0
00
00
ENDCHAR
STARTCHAR C0026
ENCODING -1 38
SWIDTH 643 0
DWIDTH 9 0
BBX 8 14 1 -3
BITMAP
30
78
4C
6C
3B
7B
CE
CE
C6
CF
79
00
00
00
ENDCHAR
STARTCHAR C0027
ENCODING -1 39
SWIDTH 1071 0
DWIDTH 15 0
BBX 2 14 7 -3
BITMAP
80
C0
C0
C0
C0
80
00
00
00
00
00
00
00
00
ENDCHAR
STARTCHAR C0028
ENCODING -1 40
SWIDTH 929 0
DWIDTH 13 0
BBX 4 14 4 -3
BITMAP
30
60
60
C0
C0
C0
C0
C0
C0
C0
60
60
70
30
ENDCHAR
STARTCHAR C0029
ENCODING -1 41
SWIDTH 929 0
DWIDTH 13 0
BBX 4 14 5 -3
BITMAP
C0
60
60
70
30
30
30
30
30
30
60
60
C0
80
ENDCHAR
STARTCHAR C002A
ENCODING -1 42
SWIDTH 714 0
DWIDTH 10 0
BBX 7 14 2 -3
BITMAP
00
00
18
18
9A
FE
38
7C
6C
44
00
00
00
00
ENDCHAR
STARTCHAR C002B
ENCODING -1 43
SWIDTH 714 0
DWIDTH 10 0
BBX 7 14 1 -3
BITMAP
00
00
00
18
18
FE
FE
18
18
18
00
00
00
00
ENDCHAR
STARTCHAR C002C
ENCODING -1 44
SWIDTH 1000 0
DWIDTH 14 0
BBX 3 14 5 -3
BITMAP
00
00
00
00
00
00
00
00
00
E0
E0
60
C0
80
ENDCHAR
STARTCHAR C002D
ENCODING -1 45
SWIDTH 857 0
DWIDTH 12 0
BBX 6 14 3 -3
BITMAP
00
00
00
00
00
F8
FC
00
00
00
00
00
00
00
ENDCHAR
STARTCHAR C002E
ENCODING -1 46
SWIDTH 1000 0
DWIDTH 14 0
BBX 3 14 6 -3
BITMAP
00
00
00
00
00
00
00
00
00
E0
E0
00
00
00
ENDCHAR
STARTCHAR C002F
ENCODING -1 47
SWIDTH 786 0
DWIDTH 11 0
BBX 6 14 3 -3
BITMAP
0C
0C
18
18
18
30
30
70
60
C0
C0
C0
00
00
ENDCHAR
STARTCHAR C0030
ENCODING -1 48
SWIDTH 786 0
DWIDTH 11 0
BBX 6 14 2 -3
BITMAP
30
78
CC
CC
CC
CC
CC
CC
CC
EC
78
00
00
00
ENDCHAR
STARTCHAR C0031
ENCODING -1 49
SWIDTH 857 0
DWIDTH 12 0
BBX 5 14 4 -3
BITMAP
60
F0
70
70
70
70
70
70
70
70
F8
00
00
00
ENDCHAR
STARTCHAR C0032
ENCODING -1 50
SWIDTH 786 0
DWIDTH 11 0
BBX 7 14 2 -3
BITMAP
38
7C
C6
46
0C
18
30
70
E0
C6
FE
00
00
00
ENDCHAR
STARTCHAR C0033
ENCODING -1 51
SWIDTH 786 0
DWIDTH 11 0
BBX 7 14 2 -3
BITMAP
30
78
CC
0C
0C
38
0C
06
86
CC
78
00
00
00
ENDCHAR
STARTCHAR C0034
ENCODING -1 52
SWIDTH 714 0
DWIDTH 10 0
BBX 7 14 1 -3
BITMAP
0C
1C
1C
3C
6C
6C
CC
FE
FE
0C
1E
00
00
00
ENDCHAR
STARTCHAR C0035
ENCODING -1 53
SWIDTH 786 0
DWIDTH 11 0
BBX 7 14 2 -3
BITMAP
7C
7C
64
60
F8
E4
06
06
86
CC
78
00
00
00
ENDCHAR
STARTCHAR C0036
ENCODING -1 54
SWIDTH 786 0
DWIDTH 11 0
BBX 7 14 2 -3
BITMAP
38
7C
40
C0
F8
E4
C6
C6
C6
64
38
00
00
00
ENDCHAR
STARTCHAR C0037
ENCODING -1 55
SWIDTH 786 0
DWIDTH 11 0
BBX 6 14 3 -3
BITMAP
FC
FC
8C
08
18
18
30
70
60
60
C0
00
00
00
ENDCHAR
STARTCHAR C0038
ENCODING -1 56
SWIDTH 714 0
DWIDTH 10 0
BBX 7 14 1 -3
BITMAP
38
7C
C6
C6
64
7C
C6
C6
C6
C6
7C
00
00
00
ENDCHAR
STARTCHAR C0039
ENCODING -1 57
SWIDTH 786 0
DWIDTH 11 0
BBX 7 14 2 -3
BITMAP
30
7C
C4
C4
C6
C6
7E
7E
04
4C
78
00
00
00
ENDCHAR
STARTCHAR C003A
ENCODING -1 58
SWIDTH 1000 0
DWIDTH 14 0
BBX 3 14 6 -3
BITMAP
00
00
00
00
E0
E0
00
00
00
E0
E0
00
00
00
ENDCHAR
STARTCHAR C003B
ENCODING -1 59
SWIDTH 1000 0
DWIDTH 14 0
BBX 3 14 6 -3
BITMAP
00
00
00
00
E0
E0
00
00
00
E0
E0
60
C0
80
ENDCHAR
STARTCHAR C003C
ENCODING -1 60
SWIDTH 786 0
DWIDTH 11 0
BBX 7 14 1 -3
BITMAP
04
0C
18
30
60
C0
60
70
30
08
04
00
00
00
ENDCHAR
STARTCHAR C003D
ENCODING -1 61
SWIDTH 786 0
DWIDTH 11 0
BBX 6 14 2 -3
BITMAP
00
00
00
00
FC
FC
00
FC
FC
00
00
00
00
00
ENDCHAR
STARTCHAR C003E
ENCODING -1 62
SWIDTH 786 0
DWIDTH 11 0
BBX 7 14 3 -3
BITMAP
80
60
70
30
08
04
0C
18
30
60
C0
00
00
00
ENDCHAR
STARTCHAR C003F
ENCODING -1 63
SWIDTH 857 0
DWIDTH 12 0
BBX 6 14 4 -3
BITMAP
70
F8
CC
8C
18
30
70
70
20
20
70
00
00
00
ENDCHAR
STARTCHAR C0040
ENCODING -1 64
SWIDTH 786 0
DWIDTH 11 0
BBX 7 14 2 -3
BITMAP
38
7C
C6
8E
BE
B6
B6
9E
8C
C8
78
00
00
00
ENDCHAR
STARTCHAR C0041
ENCODING -1 65
SWIDTH 643 0
DWIDTH 9 0
BBX 9 14 0 -3
BITMAP
0800
1C00
1C00
1C00
3600
3600
7E00
7E00
6300
4300
E380
0000
0000
0000
ENDCHAR
STARTCHAR C0042
ENCODING -1 66
SWIDTH 714 0
DWIDTH 10 0
BBX 7 14 2 -3
BITMAP
F8
FC
C6
C6
C4
FC
C4
C6
C6
C6
FC
00
00
00
ENDCHAR
STARTCHAR C0043
ENCODING -1 67
SWIDTH 786 0
DWIDTH 11 0
BBX 7 14 2 -3
BITMAP
18
7E
E6
C0
C0
C0
C0
C0
C0
66
7C
00
00
00
ENDCHAR
STARTCHAR C0044
ENCODING -1 68
SWIDTH 714 0
DWIDTH 10 0
BBX 7 14 2 -3
BITMAP
F0
FC
C6
C6
C6
C6
C6
C6
C6
C4
F8
00
00
00
ENDCHAR
STARTCHAR C0045
ENCODING -1 69
SWIDTH 786 0
DWIDTH 11 0
BBX 7 14 2 -3
BITMAP
FC
FC
C4
C0
C8
F8
C8
C0
C0
C6
FE
00
00
00
ENDCHAR
STARTCHAR C0046
ENCODING -1 70
SWIDTH 786 0
DWIDTH 11 0
BBX 7 14 2 -3
BITMAP
FC
FE
C2
C0
C8
F8
C8
C0
C0
C0
E0
00
00
00
ENDCHAR
STARTCHAR C0047
ENCODING -1 71
SWIDTH 714 0
DWIDTH 10 0
BBX 7 14 1 -3
BITMAP
38
7C
C4
C0
C0
CE
C6
C6
C6
E6
7E
00
00
00
ENDCHAR
STARTCHAR C0048
ENCODING -1 72
SWIDTH 714 0
DWIDTH 10 0
BBX 8 14 1 -3
BITMAP
E7
E7
C6
C6
C6
FE
C6
C6
C6
C6
E7
00
00
00
ENDCHAR
STARTCHAR C0049
ENCODING -1 73
SWIDTH 857 0
DWIDTH 12 0
BBX 5 14 4 -3
BITMAP
F8
F8
70
70
70
70
70
70
70
70
F8
00
00
00
ENDCHAR
STARTCHAR C004A
ENCODING -1 74
SWIDTH 714 0
DWIDTH 10 0
BBX 8 14 1 -3
BITMAP
0F
0F
06
06
06
06
86
C6
C6
C4
78
00
00
00
ENDCHAR
STARTCHAR C004B
ENCODING -1 75
SWIDTH 643 0
DWIDTH 9 0
BBX 8 14 1 -3
BITMAP
EE
EE
CC
D8
F0
E0
F0
D8
CC
C6
EF
00
00
00
ENDCHAR
STARTCHAR C004C
ENCODING -1 76
SWIDTH 786 0
DWIDTH 11 0
BBX 7 14 2 -3
BITMAP
E0
E0
C0
C0
C0
C0
C0
C0
C0
C6
FE
00
00
00
ENDCHAR
STARTCHAR C004D
ENCODING -1 77
SWIDTH 714 0
DWIDTH 10 0
BBX 8 14 1 -3
BITMAP
E7
E7
FE
FE
FE
DE
D6
C6
C6
C6
C7
00
00
00
ENDCHAR
STARTCHAR C004E
ENCODING -1 78
SWIDTH 714 0
DWIDTH 10 0
BBX 8 14 1 -3
BITMAP
C3
E3
E2
F2
F2
F2
DA
DA
CA
CE
C6
00
00
00
ENDCHAR
STARTCHAR C004F
ENCODING -1 79
SWIDTH 714 0
DWIDTH 10 0
BBX 8 14 1 -3
BITMAP
18
7C
E6
C3
C3
C3
C3
C3
C3
66
3C
00
00
00
ENDCHAR
STARTCHAR C0050
ENCODING -1 80
SWIDTH 786 0
DWIDTH 11 0
BBX 7 14 2 -3
BITMAP
F0
FC
C6
C6
C6
C4
F8
C0
C0
C0
E0
00
00
00
ENDCHAR
STARTCHAR C0051
ENCODING -1 81
SWIDTH 643 0
DWIDTH 9 0
BBX 8 14 1 -3
BITMAP
18
7C
E6
C3
C3
C3
C3
C3
DB
7E
3C
07
03
00
ENDCHAR
STARTCHAR C0052
ENCODING -1 82
SWIDTH 643 0
DWIDTH 9 0
BBX 8 14 1 -3
BITMAP
F8
FC
C6
C6
C6
FC
F8
CC
CC
C6
E3
00
00
00
ENDCHAR
STARTCHAR C0053
ENCODING -1 83
SWIDTH 714 0
DWIDTH 10 0
BBX 7 14 2 -3
BITMAP
30
7E
C6
E6
70
3C
86
86
C6
E6
BC
00
00
00
ENDCHAR
STARTCHAR C0054
ENCODING -1 84
SWIDTH 714 0
DWIDTH 10 0
BBX 7 14 2 -3
BITMAP
FE
FE
9A
18
18
18
18
18
18
18
38
00
00
00
ENDCHAR
STARTCHAR C0055
ENCODING -1 85
SWIDTH 714 0
DWIDTH 10 0
BBX 8 14 1 -3
BITMAP
E3
E3
C2
C2
C2
C2
C2
C2
C2
62
7C
00
00
00
ENDCHAR
STARTCHAR C0056
ENCODING -1 86
SWIDTH 643 0
DWIDTH 9 0
BBX 8 14 0 -3
BITMAP
E3
E3
C3
63
62
76
34
34
34
1C
18
00
00
00
ENDCHAR
STARTCHAR C0057
ENCODING -1 87
SWIDTH 643 0
DWIDTH 9 0
BBX 9 14 0 -3
BITMAP
E180
E180
C180
C180
6300
6B00
6F00
7F00
7700
7200
3200
0000
0000
0000
ENDCHAR
STARTCHAR C0058
ENCODING -1 88
SWIDTH 643 0
DWIDTH 9 0
BBX 8 14 0 -3
BITMAP
73
73
76
34
1C
18
1C
3C
24
66
E7
00
00
00
ENDCHAR
STARTCHAR C0059
ENCODING -1 89
SWIDTH 714 0
DWIDTH 10 0
BBX 7 14 1 -3
BITMAP
E6
E6
C6
64
7C
38
18
18
18
18
38
00
00
00
ENDCHAR
STARTCHAR C005A
ENCODING -1 90
SWIDTH 714 0
DWIDTH 10 0
BBX 7 14 1 -3
BITMAP
7E
FE
C6
04
0C
18
30
70
60
C2
FE
00
00
00
ENDCHAR
STARTCHAR C005B
ENCODING -1 91
SWIDTH 857 0
DWIDTH 12 0
BBX 5 14 2 -3
BITMAP
F8
C0
C0
C0
C0
C0
C0
C0
C0
C0
C0
C0
F8
F8
ENDCHAR
STARTCHAR C005C
ENCODING -1 92
SWIDTH 786 0
DWIDTH 11 0
BBX 7 14 2 -3
BITMAP
C0
C0
60
60
70
30
10
18
18
0C
0C
0C
04
04
ENDCHAR
STARTCHAR C005D
ENCODING -1 93
SWIDTH 857 0
DWIDTH 12 0
BBX 5 14 5 -3
BITMAP
F8
18
18
18
18
18
18
18
18
18
18
18
F8
F8
ENDCHAR
STARTCHAR C005E
ENCODING -1 94
SWIDTH 786 0
DWIDTH 11 0
BBX 8 14 1 -3
BITMAP
18
3C
66
C3
00
00
00
00
00
00
00
00
00
00
ENDCHAR
STARTCHAR C005F
ENCODING -1 95
SWIDTH 643 0
DWIDTH 9 0
BBX 9 14 0 -3
BITMAP
0000
0000
0000
0000
0000
0000
0000
0000
0000
0000
0000
0000
0000
FF80
ENDCHAR
STARTCHAR C0060
ENCODING -1 96
SWIDTH 1143 0
DWIDTH 16 0
BBX 1 14 0 -3
BITMAP
00
00
00
00
00
00
00
00
00
00
00
00
00
00
ENDCHAR
STARTCHAR C0061
ENCODING -1 97
SWIDTH 714 0
DWIDTH 10 0
BBX 7 14 2 -3
BITMAP
00
00
00
78
FC
0C
7C
CC
CC
CC
7E
00
00
00
ENDCHAR
STARTCHAR C0062
ENCODING -1 98
SWIDTH 714 0
DWIDTH 10 0
BBX 7 14 1 -3
BITMAP
C0
C0
C0
D8
FC
C6
C6
C6
C6
E6
FC
00
00
00
ENDCHAR
STARTCHAR C0063
ENCODING -1 99
SWIDTH 786 0
DWIDTH 11 0
BBX 7 14 2 -3
BITMAP
00
00
00
38
7C
C4
C0
C0
C0
E6
7C
00
00
00
ENDCHAR
STARTCHAR C0064
ENCODING -1 100
SWIDTH 714 0
DWIDTH 10 0
BBX 7 14 2 -3
BITMAP
04
06
06
36
7E
C6
C6
C6
C6
C6
7E
00
00
00
ENDCHAR
STARTCHAR C0065
ENCODING -1 101
SWIDTH 786 0
DWIDTH 11 0
BBX 7 14 2 -3
BITMAP
00
00
00
38
7C
C4
FE
FE
C0
C6
7C
00
00
00
ENDCHAR
STARTCHAR C0066
ENCODING -1 102
SWIDTH 714 0
DWIDTH 10 0
BBX 7 14 2 -3
BITMAP
1C
3E
70
F8
F8
70
70
70
70
70
F8
00
00
00
ENDCHAR
STARTCHAR C0067
ENCODING -1 103
SWIDTH 714 0
DWIDTH 10 0
BBX 7 14 2 -3
BITMAP
00
00
00
36
7E
C6
C6
C6
C6
7E
36
C6
FC
78
ENDCHAR
STARTCHAR C0068
ENCODING -1 104
SWIDTH 714 0
DWIDTH 10 0
BBX 7 14 1 -3
BITMAP
C0
C0
C0
D8
FC
E6
C6
C6
C6
C6
EE
00
00
00
ENDCHAR
STARTCHAR C0069
ENCODING -1 105
SWIDTH 786 0
DWIDTH 11 0
BBX 6 14 3 -3
BITMAP
30
30
00
F0
F0
30
30
30
30
30
FC
00
00
00
ENDCHAR
STARTCHAR C006A
ENCODING -1 106
SWIDTH 857 0
DWIDTH 12 0
BBX 6 14 3 -3
BITMAP
08
0C
00
38
3C
0C
0C
0C
0C
0C
0C
CC
F8
70
ENDCHAR
STARTCHAR C006B
ENCODING -1 107
SWIDTH 714 0
DWIDTH 10 0
BBX 8 14 1 -3
BITMAP
C0
C0
C0
CC
CC
D8
F0
F8
D8
CC
EF
00
00
00
ENDCHAR
STARTCHAR C006C
ENCODING -1 108
SWIDTH 786 0
DWIDTH 11 0
BBX 6 14 3 -3
BITMAP
F0
F0
30
30
30
30
30
30
30
30
FC
00
00
00
ENDCHAR
STARTCHAR C006D
ENCODING -1 109
SWIDTH 643 0
DWIDTH 9 0
BBX 9 14 0 -3
BITMAP
0000
0000
0000
B600
FF00
CB80
CB80
CB80
CB80
CB80
FF80
0000
0000
0000
ENDCHAR
STARTCHAR C006E
ENCODING -1 110
SWIDTH 714 0
DWIDTH 10 0
BBX 7 14 1 -3
BITMAP
00
00
00
D8
FC
C6
C6
C6
C6
C6
EE
00
00
00
ENDCHAR
STARTCHAR C006F
ENCODING -1 111
SWIDTH 786 0
DWIDTH 11 0
BBX 7 14 2 -3
BITMAP
00
00
00
38
7C
C6
C6
C6
C6
C4
78
00
00
00
ENDCHAR
STARTCHAR C0070
ENCODING -1 112
SWIDTH 786 0
DWIDTH 11 0
BBX 7 14 2 -3
BITMAP
00
00
00
D8
FC
C6
C6
C6
C6
E4
F8
C0
E0
E0
ENDCHAR
STARTCHAR C0071
ENCODING -1 113
SWIDTH 786 0
DWIDTH 11 0
BBX 7 14 2 -3
BITMAP
00
00
00
34
7C
CC
CC
CC
CC
CC
7C
0C
0C
0C
ENDCHAR
STARTCHAR C0072
ENCODING -1 114
SWIDTH 714 0
DWIDTH 10 0
BBX 7 14 2 -3
BITMAP
00
00
00
CC
FE
E0
C0
C0
C0
C0
E0
00
00
00
ENDCHAR
STARTCHAR C0073
ENCODING -1 115
SWIDTH 786 0
DWIDTH 11 0
BBX 7 14 2 -3
BITMAP
00
00
00
38
7C
E0
78
1C
0C
C6
7C
00
00
00
ENDCHAR
STARTCHAR C0074
ENCODING -1 116
SWIDTH 786 0
DWIDTH 11 0
BBX 7 14 2 -3
BITMAP
00
30
70
FC
FC
70
70
70
74
76
3C
00
00
00
ENDCHAR
STARTCHAR C0075
ENCODING -1 117
SWIDTH 714 0
DWIDTH 10 0
BBX 7 14 1 -3
BITMAP
00
00
00
C4
C6
C6
C6
C6
C6
E6
7E
00
00
00
ENDCHAR
STARTCHAR C0076
ENCODING -1 118
SWIDTH 714 0
DWIDTH 10 0
BBX 8 14 1 -3
BITMAP
00
00
00
E3
E3
66
74
7C
3C
18
18
00
00
00
ENDCHAR
STARTCHAR C0077
ENCODING -1 119
SWIDTH 643 0
DWIDTH 9 0
BBX 9 14 0 -3
BITMAP
0000
0000
0000
E180
E180
CD80
6F00
7F00
7700
7600
2200
0000
0000
0000
ENDCHAR
STARTCHAR C0078
ENCODING -1 120
SWIDTH 643 0
DWIDTH 9 0
BBX 8 14 1 -3
BITMAP
00
00
00
E7
E7
34
18
18
3C
66
E7
00
00
00
ENDCHAR
STARTCHAR C0079
ENCODING -1 121
SWIDTH 643 0
DWIDTH 9 0
BBX 8 14 1 -3
BITMAP
00
00
00
E3
E3
62
36
34
1C
08
08
18
F0
60
ENDCHAR
STARTCHAR C007A
ENCODING -1 122
SWIDTH 786 0
DWIDTH 11 0
BBX 7 14 2 -3
BITMAP
00
00
00
7C
FE
0C
18
38
70
E6
FE
00
00
00
ENDCHAR
STARTCHAR C007B
ENCODING -1 123
SWIDTH 857 0
DWIDTH 12 0
BBX 5 14 3 -3
BITMAP
38
70
70
70
70
60
C0
60
70
70
70
70
30
18
ENDCHAR
STARTCHAR C007C
ENCODING -1 124
SWIDTH 1071 0
DWIDTH 15 0
BBX 2 14 6 -3
BITMAP
C0
C0
C0
C0
C0
C0
C0
C0
C0
C0
C0
C0
C0
80
ENDCHAR
STARTCHAR C007D
ENCODING -1 125
SWIDTH 857 0
DWIDTH 12 0
BBX 5 14 4 -3
BITMAP
E0
70
70
70
70
30
18
30
70
70
70
70
60
C0
ENDCHAR
STARTCHAR C007E
ENCODING -1 126
SWIDTH 643 0
DWIDTH 9 0
BBX 9 14 0 -3
BITMAP
0000
0000
0000
0000
0000
3080
7F00
CE00
8400
0000
0000
0000
0000
0000
ENDCHAR
ENDFONT
